# xmcd CD database file
#
# Track frame offsets:
#	150
#	12111
#	22471
#	33585
#	47162
#	56791
#	69106
#	82062
#	92740
#	105831
#	118229
#	134747
#
# Disc length: 1952 seconds
#
# Revision: 0
# Processed by: cddbd v1.5.2PL0 Copyright (c) Steve Scherf et al.
# Submitted via: CDex 1.70beta2
#
DISCID=a7079e0c
DTITLE=Memphis Slim - Soul Blues
DYEAR=2008
DGENRE=Blues
TTITLE0=I'll Just Keep on Swingin' With the Blues
TTITLE1=I'm Lost Without You
TTITLE2=Lonesome
TTITLE3=What is the Mare-Rack
TTITLE4=Big Bertha
TTITLE5=It's Been Too Long
TTITLE6=One Man's Mad
TTITLE7=Pigalle Love
TTITLE8=True Love
TTITLE9=Four Walls
TTITLE10=Cold Blooded Woman
TTITLE11=Let the Good Times Roll Creole
EXTD=YEAR: 2008
EXTT0=
EXTT1=
EXTT2=
EXTT3=
EXTT4=
EXTT5=
EXTT6=
EXTT7=
EXTT8=
EXTT9=
EXTT10=
EXTT11=
PLAYORDER=
